<?xml version="1.0" encoding="UTF-8" ?>
<svg version="1.1" width="32" height="32" xmlns="http://www.w3.org/2000/svg" shape-rendering="crispEdges">
<rect x="0" y="0" width="32" height="8" fill="#21181B" />
<rect x="0" y="8" width="10" height="20" fill="#21181B" />
<rect x="10" y="8" width="11" height="1" fill="#AD2F45" />
<rect x="21" y="8" width="11" height="15" fill="#21181B" />
<rect x="10" y="9" width="1" height="13" fill="#AD2F45" />
<rect x="11" y="9" width="7" height="1" fill="#1B1F21" />
<rect x="18" y="9" width="2" height="16" fill="#E64539" />
<rect x="20" y="9" width="1" height="13" fill="#AD2F45" />
<rect x="11" y="10" width="1" height="13" fill="#1B1F21" />
<rect x="12" y="10" width="1" height="2" fill="#21181B" />
<rect x="13" y="10" width="5" height="1" fill="#1B1F21" />
<rect x="13" y="11" width="2" height="1" fill="#21181B" />
<rect x="15" y="11" width="3" height="1" fill="#1B1F21" />
<rect x="12" y="12" width="2" height="1" fill="#1B1F21" />
<rect x="14" y="12" width="2" height="3" fill="#21181B" />
<rect x="16" y="12" width="2" height="4" fill="#1B1F21" />
<rect x="12" y="13" width="2" height="2" fill="#21181B" />
<rect x="12" y="15" width="1" height="4" fill="#21181B" />
<rect x="13" y="15" width="3" height="1" fill="#1B1F21" />
<rect x="13" y="16" width="1" height="3" fill="#21181B" />
<rect x="14" y="16" width="2" height="1" fill="#1B1F21" />
<rect x="16" y="16" width="1" height="5" fill="#21181B" />
<rect x="17" y="16" width="1" height="7" fill="#1B1F21" />
<rect x="14" y="17" width="2" height="5" fill="#21181B" />
<rect x="12" y="19" width="2" height="1" fill="#1B1F21" />
<rect x="12" y="20" width="2" height="2" fill="#21181B" />
<rect x="16" y="21" width="1" height="3" fill="#1B1F21" />
<rect x="10" y="22" width="1" height="1" fill="#1B1F21" />
<rect x="12" y="22" width="4" height="1" fill="#1B1F21" />
<rect x="20" y="22" width="1" height="5" fill="#E64539" />
<rect x="10" y="23" width="2" height="9" fill="#21181B" />
<rect x="12" y="23" width="3" height="1" fill="#1B1F21" />
<rect x="15" y="23" width="1" height="9" fill="#21181B" />
<rect x="17" y="23" width="1" height="9" fill="#21181B" />
<rect x="21" y="23" width="3" height="6" fill="#E64539" />
<rect x="24" y="23" width="8" height="1" fill="#21181B" />
<rect x="12" y="24" width="3" height="8" fill="#21181B" />
<rect x="16" y="24" width="1" height="8" fill="#21181B" />
<rect x="24" y="24" width="5" height="8" fill="#E64539" />
<rect x="29" y="24" width="3" height="1" fill="#21181B" />
<rect x="18" y="25" width="1" height="7" fill="#21181B" />
<rect x="19" y="25" width="1" height="1" fill="#E64539" />
<rect x="29" y="25" width="3" height="7" fill="#E64539" />
<rect x="19" y="26" width="1" height="6" fill="#21181B" />
<rect x="20" y="27" width="1" height="5" fill="#21181B" />
<rect x="0" y="28" width="1" height="4" fill="#21181B" />
<rect x="1" y="28" width="3" height="1" fill="#E64539" />
<rect x="4" y="28" width="6" height="4" fill="#21181B" />
<rect x="1" y="29" width="1" height="2" fill="#E64539" />
<rect x="2" y="29" width="1" height="3" fill="#21181B" />
<rect x="3" y="29" width="1" height="2" fill="#E64539" />
<rect x="21" y="29" width="1" height="3" fill="#21181B" />
<rect x="22" y="29" width="2" height="2" fill="#E64539" />
<rect x="1" y="31" width="1" height="1" fill="#21181B" />
<rect x="3" y="31" width="1" height="1" fill="#21181B" />
<rect x="22" y="31" width="2" height="1" fill="#21181B" />
</svg>
